<?xml version="1.0" standalone="no"?>
<!DOCTYPE svg PUBLIC "-//W3C//DTD SVG 20010904//EN"
 "http://www.w3.org/TR/2001/REC-SVG-20010904/DTD/svg10.dtd">
<svg version="1.0" xmlns="http://www.w3.org/2000/svg"
 width="303.000000pt" height="170.000000pt" viewBox="0 0 303.000000 170.000000"
 preserveAspectRatio="xMidYMid meet">
<metadata>
Created by potrace 1.16, written by Peter Selinger 2001-2019
</metadata>
<g transform="translate(0.000000,170.000000) scale(0.100000,-0.100000)"
fill="#000000" stroke="none">
<path d="M0 850 l0 -850 1515 0 1515 0 0 850 0 850 -1515 0 -1515 0 0 -850z
m2062 348 c2 -7 4 -35 4 -63 l-1 -50 -550 0 -550 0 -3 49 c-2 27 -1 55 2 62 8
20 1092 21 1098 2z m6 -357 c2 -37 -1 -57 -10 -62 -15 -10 -1058 -12 -1082 -3
-12 5 -16 20 -16 58 0 29 3 56 7 59 3 4 252 6 552 5 l546 -3 3 -54z m-5 -306
l-1 -60 -548 0 -549 0 -3 49 c-2 27 -1 55 2 62 5 12 94 14 553 12 l547 -3 -1
-60z"/>
</g>
</svg>
